<svg xmlns="http://www.w3.org/2000/svg" viewBox="0 0 788.98 230.56"><defs><style>.cls-1{fill:#fff;}.cls-2{fill:#00cfff;}.cls-3{fill:#2d94c1;}</style></defs><title>blockchainlogo</title><g id="Layer_2" data-name="Layer 2"><g id="Layer_1-2" data-name="Layer 1"><path class="cls-1" d="M15.8,229.4V186.63H.12v-3H34.71v3H18.88V229.4Z"/><path class="cls-1" d="M43.07,229.4V183.62H72.94v3H46.15v17.6H70.63v2.86H46.15v19.37H72.94v2.94Z"/><path class="cls-1" d="M85.39,223.53a24.81,24.81,0,0,1-6.18-17,25.14,25.14,0,0,1,6.18-17.07,19.88,19.88,0,0,1,26.94-3.16,15.89,15.89,0,0,1,6.1,10.19h-3.09a12.3,12.3,0,0,0-5.17-7.95,16.21,16.21,0,0,0-10-3.17q-7.41,0-12.66,6.18a24,24,0,0,0,0,30q5.25,6.18,12.66,6.18A15,15,0,0,0,110.64,224a14.36,14.36,0,0,0,4.7-9.88h3.09a17.29,17.29,0,0,1-5.63,12,18.07,18.07,0,0,1-12.59,4.48A19,19,0,0,1,85.39,223.53Z"/><path class="cls-1" d="M127.94,229.4V183.62H131v20h27.64v-20h3.09V229.4h-3.09V206.55H131V229.4Z"/><path class="cls-1" d="M174.75,229.4V183.62H179l27.64,42v-42h3.09V229.4h-4.25L177.84,188V229.4Z"/><path class="cls-1" d="M225.79,223.53q-5.55-6.41-5.55-17,0-11,5.55-17.53t14.82-6.56q9.27,0,14.83,6.56T261,206.55q0,10.57-5.56,17t-14.83,6.41Q231.36,229.94,225.79,223.53Zm27.41-2.08q4.71-5.56,4.71-14.9,0-9.59-4.71-15.36a16.55,16.55,0,0,0-25.17,0q-4.71,5.77-4.71,15.36,0,9.33,4.71,14.9a16.88,16.88,0,0,0,25.17,0Z"/><path class="cls-1" d="M271.51,183.62h3.09v42.84h24.63v2.94H271.51Z"/><path class="cls-1" d="M310.68,223.53q-5.56-6.41-5.56-17,0-11,5.56-17.53t14.82-6.56q9.25,0,14.82,6.56t5.56,17.53q0,10.57-5.56,17t-14.82,6.41Q316.23,229.94,310.68,223.53Zm27.4-2.08q4.71-5.56,4.71-14.9,0-9.59-4.71-15.36a16.55,16.55,0,0,0-25.17,0q-4.71,5.77-4.71,15.36,0,9.33,4.71,14.9a16.88,16.88,0,0,0,25.17,0Z"/><path class="cls-1" d="M360,223.53a24.46,24.46,0,0,1-6.33-17A24.79,24.79,0,0,1,360,189.48a20.1,20.1,0,0,1,15.37-7,19,19,0,0,1,12,4,15.72,15.72,0,0,1,6.25,10h-3.08a12.31,12.31,0,0,0-5.18-7.95,16.2,16.2,0,0,0-9.95-3.17,16.82,16.82,0,0,0-13.13,6.18,23.2,23.2,0,0,0,0,30,16.82,16.82,0,0,0,13.13,6.18,14.67,14.67,0,0,0,11.19-5,16.94,16.94,0,0,0,4.63-12v-1.16H375.39v-2.93H393.6V229.4h-2.39V220a14.77,14.77,0,0,1-6.1,7.64,16.88,16.88,0,0,1-9.72,2.94A20.11,20.11,0,0,1,360,223.53Z"/><path class="cls-1" d="M417.71,229.4V209.48l-17.6-25.86h4.4l14.9,22.31,14.44-22.31h4.4l-17,25.86V229.4Z"/><path class="cls-1" d="M474.41,229.4V183.62h4.87L496,225.54l16.67-41.92h4.87V229.4h-3.09V187.17L497.42,229.4h-2.86L477.5,187.17V229.4Z"/><path class="cls-1" d="M526.31,229.4l18.14-45.78h3.86l17.91,45.78h-3.55l-5.87-14.67H535.65l-5.87,14.67Zm29.33-17.6-9.41-24.63-9.65,24.63Z"/><path class="cls-1" d="M574.89,183.62H578v42.84H602.6v2.94H574.89Z"/><path class="cls-1" d="M606.71,229.4l18.14-45.78h3.86l17.91,45.78h-3.55l-5.86-14.67H616.05l-5.86,14.67Zm29.34-17.6-9.42-24.63L617,211.8Z"/><path class="cls-1" d="M668.26,229.4V209.48l-17.6-25.86h4.4L670,205.93l14.43-22.31h4.4l-17,25.86V229.4Z"/><path class="cls-1" d="M698.85,226.08a14.12,14.12,0,0,1-4.71-10.73h3.09a11.67,11.67,0,0,0,3.78,8.72,12.68,12.68,0,0,0,9.11,3.63,16.26,16.26,0,0,0,10-3.09c2.72-2.06,4.09-4.55,4.09-7.49a7.53,7.53,0,0,0-3.63-6.33,19.15,19.15,0,0,0-9.57-3.08q-7.34-.63-11.74-4.17a10.79,10.79,0,0,1,.08-17.45,16.61,16.61,0,0,1,10.81-3.63,18.42,18.42,0,0,1,11.65,3.78q4.79,3.8,4.79,9.11h-3.09q0-4.09-3.93-7a15.12,15.12,0,0,0-9.42-2.94,13.83,13.83,0,0,0-8.65,2.78,8.1,8.1,0,0,0-3.55,6.64,7.73,7.73,0,0,0,3.71,6.49,20.34,20.34,0,0,0,10,3.16q7.1.63,11.42,4.09a10.69,10.69,0,0,1,4.25,8.57q0,5.56-5,9.5a19.08,19.08,0,0,1-12.12,3.94A15.61,15.61,0,0,1,698.85,226.08Z"/><path class="cls-1" d="M737.23,229.4V183.62h3.09V229.4Z"/><path class="cls-1" d="M749.07,229.4l18.14-45.78h3.86L789,229.4h-3.55l-5.87-14.67H758.41l-5.87,14.67Zm29.33-17.6L769,187.17l-9.65,24.63Z"/><path class="cls-2" d="M0,9.08H32.37q10.64,0,18.14,3.25A34.21,34.21,0,0,1,62.78,21a32.47,32.47,0,0,1,6.85,12.48,52.31,52.31,0,0,1,2.06,14.67v5.65a49.36,49.36,0,0,1-1,10.64,25.74,25.74,0,0,1-2.93,7.61A24.54,24.54,0,0,1,63,77.84a41.52,41.52,0,0,1-6.52,4.66A24,24,0,0,1,68,93.48q3.69,7.27,3.69,19.44v8.69q0,20.42-9.88,31.28T30.19,163.76H0ZM22.16,72.51h10Q43.24,72.51,47,67t3.81-16.18q0-10.44-4.24-15.65T31.28,29.93H22.16Zm0,69.08h9.56c4.48,0,8-.65,10.53-2A13.46,13.46,0,0,0,48,134.21,20.52,20.52,0,0,0,50.4,126c.29-3.18.44-6.66.44-10.42a69.08,69.08,0,0,0-.66-10.22A16.78,16.78,0,0,0,47.47,98a12.85,12.85,0,0,0-5.76-4.46,26.26,26.26,0,0,0-9.78-1.52H22.16Z"/><path class="cls-2" d="M87.12,9.08h22.15V141.59h43.88v22.17h-66Z"/><path class="cls-2" d="M160.76,45.57A39.58,39.58,0,0,1,164,29.06a34.54,34.54,0,0,1,8.58-11.84,37.18,37.18,0,0,1,12-7.06,38.54,38.54,0,0,1,26.72,0,37.18,37.18,0,0,1,11.95,7.06,34.67,34.67,0,0,1,8.58,11.84,39.58,39.58,0,0,1,3.26,16.51v81.69a39.31,39.31,0,0,1-3.26,16.61,34.64,34.64,0,0,1-8.58,11.74,36.82,36.82,0,0,1-11.95,7.06,38.54,38.54,0,0,1-26.72,0,36.82,36.82,0,0,1-12-7.06A34.51,34.51,0,0,1,164,143.87a39.31,39.31,0,0,1-3.26-16.61Zm22.16,81.69q0,8,4.45,11.84a16.52,16.52,0,0,0,21.08,0q4.44-3.79,4.45-11.84V45.57q0-8-4.45-11.84a16.52,16.52,0,0,0-21.08,0q-4.45,3.81-4.45,11.84Z"/><path class="cls-2" d="M319.57,129.21a35.24,35.24,0,0,1-2.72,13.69,36.07,36.07,0,0,1-7.49,11.4,37.23,37.23,0,0,1-11.19,7.83,32.89,32.89,0,0,1-13.8,2.93,49.6,49.6,0,0,1-12.82-1.74,31.24,31.24,0,0,1-11.73-6,32.34,32.34,0,0,1-8.58-11.19q-3.36-6.94-3.37-17.6V43.4a37.8,37.8,0,0,1,2.61-14.12A33.32,33.32,0,0,1,257.87,18a34.4,34.4,0,0,1,11.4-7.49,38.35,38.35,0,0,1,14.66-2.72,36.38,36.38,0,0,1,14.13,2.72,33.85,33.85,0,0,1,11.3,7.6,35.31,35.31,0,0,1,7.49,11.73,40.07,40.07,0,0,1,2.72,14.89v8.68H297.41V46a18,18,0,0,0-3.7-11.3,12,12,0,0,0-10-4.78q-8.25,0-11,5.11T270,48V127a20.45,20.45,0,0,0,2.94,11.3q2.92,4.56,10.53,4.56a16,16,0,0,0,4.67-.76,12.29,12.29,0,0,0,7.94-7.28,19.53,19.53,0,0,0,1.3-7.6v-7.6h22.16Z"/><path class="cls-2" d="M332.17,9.08h22.15v70.6h.44l32.37-70.6h22.16L379.09,71l35.85,92.77H391.48L366.27,95.11l-11.95,22.37v46.28H332.17Z"/><path class="cls-1" d="M489.67,129.21A35.24,35.24,0,0,1,487,142.9a35.9,35.9,0,0,1-7.49,11.4,37.23,37.23,0,0,1-11.19,7.83,32.88,32.88,0,0,1-13.79,2.93,49.49,49.49,0,0,1-12.82-1.74,31.21,31.21,0,0,1-11.74-6,32.32,32.32,0,0,1-8.57-11.19q-3.37-6.94-3.37-17.6V43.4a37.8,37.8,0,0,1,2.6-14.12A33.32,33.32,0,0,1,428,18a34.4,34.4,0,0,1,11.4-7.49A38.36,38.36,0,0,1,454,7.77a36.33,36.33,0,0,1,14.12,2.72,33.75,33.75,0,0,1,11.3,7.6A35.15,35.15,0,0,1,487,29.82a40.07,40.07,0,0,1,2.72,14.89v8.68H467.51V46a18,18,0,0,0-3.69-11.3,12,12,0,0,0-10-4.78q-8.25,0-11,5.11T440.14,48V127a20.53,20.53,0,0,0,2.93,11.3q2.94,4.56,10.53,4.56a16.06,16.06,0,0,0,4.68-.76,12.93,12.93,0,0,0,4.56-2.5,12.78,12.78,0,0,0,3.37-4.78,19.34,19.34,0,0,0,1.3-7.6v-7.6h22.16Z"/><path class="cls-1" d="M502.27,9.08h22.16V75.34H551.8V9.08H574V163.76H551.8V94.89H524.43v68.87H502.27Z"/><path class="cls-1" d="M613.93,9.08H632.4l34.54,154.68H644.78l-6.52-33.24h-30.2l-6.51,33.24H579.39Zm9.34,44.53h-.43L612,109.66h22.17Z"/><path class="cls-1" d="M673,54.65l11.08-8.19,11.08,8.19V163.76H673Z"/><path class="cls-1" d="M710.38,9.08h21.3l33.45,93.19h.43V9.08h22.16V163.76H766.87L733,70.77h-.44v93H710.38Z"/><polygon class="cls-2" points="684.1 0 684.1 33.67 669.16 42.14 684.1 0"/><polygon class="cls-3" points="684.1 0 684.1 33.67 699.04 42.14 684.1 0"/><rect class="cls-2" x="269.98" y="16.76" width="2.84" height="2.84" transform="translate(0.35 40.97) rotate(-8.64)"/></g></g></svg>